<svg xmlns="http://www.w3.org/2000/svg" viewBox="0 0 400 200" fill="none">
  <rect x="25" y="50" width="90" height="65" rx="6" fill="#f6f8fa" stroke="#d0d7de" stroke-width="2"/>
  <rect x="33" y="57" width="74" height="47" rx="2" fill="#ffffff"/>
  <rect x="39" y="63" width="32" height="4" rx="1" fill="#0969da"/>
  <rect x="39" y="71" width="48" height="4" rx="1" fill="#656d76"/>
  <rect x="39" y="79" width="28" height="4" rx="1" fill="#1a7f37"/>
  <rect x="39" y="87" width="40" height="4" rx="1" fill="#656d76"/>
  <path d="M15 115 L25 115 L25 117 Q70 124 115 117 L115 115 L125 115 L121 121 Q70 128 19 121 Z" fill="#f6f8fa" stroke="#d0d7de" stroke-width="1.5"/>
  <rect x="160" y="60" width="80" height="50" rx="6" fill="#f6f8fa" stroke="#d0d7de" stroke-width="1.5"/>
  <circle cx="182" cy="78" r="4" fill="#cf222e"/>
  <circle cx="200" cy="90" r="4" fill="#1a7f37"/>
  <circle cx="218" cy="78" r="4" fill="#0969da"/>
  <line x1="182" y1="78" x2="200" y2="90" stroke="#d0d7de" stroke-width="1.5"/>
  <line x1="200" y1="90" x2="218" y2="78" stroke="#d0d7de" stroke-width="1.5"/>
  <rect x="296" y="60" width="80" height="50" rx="6" fill="#f6f8fa" stroke="#d0d7de" stroke-width="1.5"/>
  <rect x="308" y="72" width="56" height="4" rx="1" fill="#656d76"/>
  <rect x="308" y="80" width="40" height="4" rx="1" fill="#656d76"/>
  <rect x="308" y="88" width="48" height="4" rx="1" fill="#656d76"/>
  <line x1="125" y1="85" x2="158" y2="85" stroke="#d0d7de" stroke-width="1.5" stroke-dasharray="4 3"/>
  <line x1="296" y1="85" x2="242" y2="85" stroke="#d0d7de" stroke-width="1.5" stroke-dasharray="4 3"/>
  <text x="70" y="140" text-anchor="middle" fill="#656d76" font-family="sans-serif" font-size="10">Prompts</text>
  <text x="200" y="125" text-anchor="middle" fill="#656d76" font-family="sans-serif" font-size="10">Git Notes</text>
  <text x="336" y="125" text-anchor="middle" fill="#656d76" font-family="sans-serif" font-size="10">SQLite</text>
  <text x="200" y="162" text-anchor="middle" fill="#1f2328" font-family="sans-serif" font-size="14" font-weight="600">Everything stays on your machine</text>
  <text x="200" y="179" text-anchor="middle" fill="#656d76" font-family="sans-serif" font-size="11">No accounts, no cloud, no API keys</text>
</svg>
